{
   "accessors" : [
      {
         "bufferView" : 2,
         "byteOffset" : 0,
         "componentType" : 5126,
         "count" : 11681,
         "max" : [ 1, 1, 1, 1 ],
         "min" : [ 0, 0.006584956776350737, 0.006584956776350737, 1 ],
         "name" : "accessor_color_m0-PolyPaper17_-612848",
         "type" : "VEC4"
      },
      {
         "bufferView" : 2,
         "byteOffset" : 186896,
         "componentType" : 5126,
         "count" : 2592,
         "max" : [ 1, 1, 1, 1 ],
         "min" : [ 1, 1, 1, 1 ],
         "name" : "accessor_color_m1-PolyGlass24_-612854",
         "type" : "VEC4"
      },
      {
         "bufferView" : 2,
         "byteOffset" : 228368,
         "componentType" : 5126,
         "count" : 3609,
         "max" : [ 1, 1, 1, 1 ],
         "min" : [ 5.692175545846112e-05, 0.01606770046055317, 0, 1 ],
         "name" : "accessor_color_m2-PolyPaper12_-612860",
         "type" : "VEC4"
      },
      {
         "bufferView" : 0,
         "byteOffset" : 0,
         "componentType" : 5123,
         "count" : 17445,
         "max" : [ 11680 ],
         "min" : [ 0 ],
         "name" : "accessor_indices_0_m0-PolyPaper17_-612848",
         "type" : "SCALAR"
      },
      {
         "bufferView" : 0,
         "byteOffset" : 34890,
         "componentType" : 5123,
         "count" : 3744,
         "max" : [ 2591 ],
         "min" : [ 0 ],
         "name" : "accessor_indices_0_m1-PolyGlass24_-612854",
         "type" : "SCALAR"
      },
      {
         "bufferView" : 0,
         "byteOffset" : 42378,
         "componentType" : 5123,
         "count" : 5295,
         "max" : [ 3608 ],
         "min" : [ 0 ],
         "name" : "accessor_indices_0_m2-PolyPaper12_-612860",
         "type" : "SCALAR"
      },
      {
         "bufferView" : 1,
         "byteOffset" : 140172,
         "componentType" : 5126,
         "count" : 11681,
         "max" : [ 1, 1, 1 ],
         "min" : [ -1, -1, -1 ],
         "name" : "accessor_normal_m0-PolyPaper17_-612848",
         "type" : "VEC3"
      },
      {
         "bufferView" : 1,
         "byteOffset" : 311448,
         "componentType" : 5126,
         "count" : 2592,
         "max" : [ 0.9998949, 0.9901459, 0.9992177 ],
         "min" : [ -0.9998949, -0.6604477, -0.9992177 ],
         "name" : "accessor_normal_m1-PolyGlass24_-612854",
         "type" : "VEC3"
      },
      {
         "bufferView" : 1,
         "byteOffset" : 385860,
         "componentType" : 5126,
         "count" : 3609,
         "max" : [ 1, 1, 1 ],
         "min" : [ -1, -1, -1 ],
         "name" : "accessor_normal_m2-PolyPaper12_-612860",
         "type" : "VEC3"
      },
      {
         "bufferView" : 1,
         "byteOffset" : 0,
         "componentType" : 5126,
         "count" : 11681,
         "max" : [ 1.060061, 2.309016, 1.059911 ],
         "min" : [ -0.9699394, 1.361482, -0.6750890000000001 ],
         "name" : "accessor_position_m0-PolyPaper17_-612848",
         "type" : "VEC3"
      },
      {
         "bufferView" : 1,
         "byteOffset" : 280344,
         "componentType" : 5126,
         "count" : 2592,
         "max" : [ 0.4143934, 2.043409, 1.012334 ],
         "min" : [ -0.7176858, 2.014635, -0.6408497 ],
         "name" : "accessor_position_m1-PolyGlass24_-612854",
         "type" : "VEC3"
      },
      {
         "bufferView" : 1,
         "byteOffset" : 342552,
         "componentType" : 5126,
         "count" : 3609,
         "max" : [ 1.003001, 2.037206, 1.024151 ],
         "min" : [ -0.949939, 1.380108, -0.6542527 ],
         "name" : "accessor_position_m2-PolyPaper12_-612860",
         "type" : "VEC3"
      }
   ],
   "asset" : {
      "copyright" : "Unknown",
      "extras" : {
         "GOOGLE_processor_version" : 294144208
      },
      "generator" : "glTF 1-to-2 Upgrader for Google Blocks",
      "version" : "2.0"
   },
   "bufferViews" : [
      {
         "buffer" : 0,
         "byteLength" : 52968,
         "byteOffset" : 0,
         "name" : "ushortBufferView",
         "target" : 34963
      },
      {
         "buffer" : 0,
         "byteLength" : 429168,
         "byteOffset" : 52968,
         "byteStride" : 12,
         "name" : "vec3BufferView",
         "target" : 34962
      },
      {
         "buffer" : 0,
         "byteLength" : 286112,
         "byteOffset" : 482136,
         "byteStride" : 16,
         "name" : "vec4BufferView",
         "target" : 34962
      }
   ],
   "buffers" : [
      {
         "byteLength" : 768248,
         "name" : "model",
         "uri" : "model.bin"
      }
   ],
   "cameras" : [
      {
         "perspective" : {
            "yfov" : 0.7853981633974483,
            "znear" : 0.1000000014901161
         },
         "type" : "perspective"
      }
   ],
   "extensions" : {
      "KHR_lights_punctual" : {
         "lights" : [
            {
               "color" : [ 1, 0.9333333333333333, 0.8666666666666667 ],
               "intensity" : 0.25,
               "name" : "headLight",
               "type" : "directional"
            },
            {
               "color" : [ 1, 0.9333333333333333, 0.8666666666666667 ],
               "intensity" : 0.324999988079071,
               "name" : "keyLight",
               "type" : "directional"
            }
         ]
      }
   },
   "extensionsUsed" : [ "GOOGLE_backgrounds", "GOOGLE_camera_settings", "KHR_lights_punctual" ],
   "extras" : {
      "GOOGLE_initial_camera_motion" : {
         "motionPath" : "FULL_ROTATION"
      },
      "GOOGLE_lighting_rig" : {
         "disableShadows" : false
      }
   },
   "materials" : [
      {
         "alphaMode" : "OPAQUE",
         "doubleSided" : false,
         "name" : "BlocksPaper",
         "pbrMetallicRoughness" : {
            "baseColorFactor" : [ 1, 1, 1, 1 ],
            "metallicFactor" : 0,
            "roughnessFactor" : 0.6
         }
      },
      {
         "alphaMode" : "BLEND",
         "doubleSided" : false,
         "name" : "BlocksGlass",
         "pbrMetallicRoughness" : {
            "baseColorFactor" : [ 0.2, 0.2, 1, 0.3 ],
            "metallicFactor" : 1,
            "roughnessFactor" : 0.4
         }
      },
      {
         "alphaMode" : "OPAQUE",
         "doubleSided" : true,
         "name" : "BlocksGem",
         "pbrMetallicRoughness" : {
            "baseColorFactor" : [ 1, 0.4, 1, 1 ],
            "metallicFactor" : 0,
            "roughnessFactor" : 0.1
         }
      }
   ],
   "meshes" : [
      {
         "name" : "mesh_m0-PolyPaper17_-612848",
         "primitives" : [
            {
               "attributes" : {
                  "COLOR_0" : 0,
                  "NORMAL" : 6,
                  "POSITION" : 9
               },
               "indices" : 3,
               "material" : 0,
               "mode" : 4
            }
         ]
      },
      {
         "name" : "mesh_m1-PolyGlass24_-612854",
         "primitives" : [
            {
               "attributes" : {
                  "COLOR_0" : 1,
                  "NORMAL" : 7,
                  "POSITION" : 10
               },
               "indices" : 4,
               "material" : 1,
               "mode" : 4
            }
         ]
      },
      {
         "name" : "mesh_m2-PolyPaper12_-612860",
         "primitives" : [
            {
               "attributes" : {
                  "COLOR_0" : 2,
                  "NORMAL" : 8,
                  "POSITION" : 11
               },
               "indices" : 5,
               "material" : 0,
               "mode" : 4
            }
         ]
      }
   ],
   "nodes" : [
      {
         "mesh" : 0,
         "name" : "node_MeshObject-1034333184-PolyPaper17"
      },
      {
         "mesh" : 2,
         "name" : "node_MeshObject-404407296-PolyPaper12"
      },
      {
         "mesh" : 1,
         "name" : "node_MeshObject-462254080-PolyGlass24"
      },
      {
         "children" : [ 4 ]
      },
      {
         "children" : [ 5 ],
         "extras" : {
            "isTransformNode" : 1
         },
         "translation" : [ 0.03976700610939575, 1.815028392198552, 0.1974112787231485 ]
      },
      {
         "children" : [ 0, 2, 1 ],
         "translation" : [ -0.03976700610939575, -1.815028392198552, -0.1974112787231485 ]
      },
      {
         "camera" : 0,
         "children" : [ 7 ],
         "rotation" : [
            0.04191650665508517,
            0.8465525416330847,
            0.0674159026993698,
            -0.5263524454086138
         ],
         "translation" : [ -0.7790444130544726, 1.967788325571228, -0.3128410460691684 ]
      },
      {
         "extensions" : {
            "KHR_lights_punctual" : {
               "light" : 0
            }
         },
         "extras" : {
            "isHeadLight" : 1
         },
         "name" : "headLightNode",
         "translation" : [ -1.672857259472117, 0.8364286297360584, 0.8364286297360584 ]
      },
      {
         "extensions" : {
            "KHR_lights_punctual" : {
               "light" : 1
            }
         },
         "extras" : {
            "isKeyLight" : 1
         },
         "name" : "keyLightNode",
         "rotation" : [ -0.7505326882858236, -0.3752663441429118, 0, 0.5439447166468927 ],
         "scale" : [ 0, 0, 1.689585832066838 ],
         "translation" : [ -1.736580485069202, 5.169154528840001, -1.428928299427712 ]
      }
   ],
   "scene" : 0,
   "scenes" : [
      {
         "extensions" : {
            "GOOGLE_backgrounds" : {
               "color" : [ 0, 0, 0 ]
            },
            "GOOGLE_camera_settings" : {
               "pivot" : [ 0, 0, 0 ]
            }
         },
         "extras" : {
            "GOOGLE_camera_index" : {
               "cameraIndex" : 0,
               "nodeIndex" : 6
            },
            "GOOGLE_geometry_data" : {
               "stats" : {
                  "centroid" : [ -0.04699465300236387, 1.789982864706325, 0.2606575326391257 ],
                  "radius" : 1.672857259472117,
                  "stdev" : 0.8726905555254896
               },
               "visualCenterPoint" : [ 0.03976700610939575, 1.815028392198552, 0.1974112787231485 ]
            },
            "GOOGLE_hemi_light" : {
               "groundColor" : [ 0, 0, 0 ]
            }
         },
         "name" : "defaultScene",
         "nodes" : [ 3, 6, 8 ]
      }
   ]
}
